<svg xmlns="http://www.w3.org/2000/svg" viewBox="0 0 256 256" role="img" aria-label="SnapStudy Logo">
  <defs>
    <linearGradient id="bg" x1="0" y1="0" x2="1" y2="1">
      <stop offset="0%" stop-color="#60A5FA"/>
      <stop offset="100%" stop-color="#2563EB"/>
    </linearGradient>
    <filter id="shadow" x="-20%" y="-20%" width="140%" height="140%">
      <feDropShadow dx="0" dy="4" stdDeviation="6" flood-color="#1e3a8a" flood-opacity="0.25"/>
    </filter>
  </defs>
  <rect width="256" height="256" rx="32" fill="url(#bg)"/>
  <g fill="none" stroke="#FFFFFF" stroke-width="12" stroke-linecap="round" stroke-linejoin="round" filter="url(#shadow)">
    <path d="M64 64h92a24 24 0 0 1 24 24v96h-76a24 24 0 0 0-24 24V64z"/>
    <path d="M156 64h36a24 24 0 0 1 24 24v96h-44a24 24 0 0 0-24 24" opacity="0.9"/>
    <path d="M104 96h44M104 128h52M104 160h36" opacity="0.9"/>
  </g>
  <g fill="#FFFFFF">
    <path d="M60 44l6 14L80 64l-14 6-6 14-6-14-14-6 14-6 6-14z" opacity="0.9"/>
  </g>
</svg>
